<svg width="24" height="24" viewBox="0 0 24 24" fill="none" xmlns="http://www.w3.org/2000/svg">
<g clip-path="url(#clip0_186_3756)">
<path fill-rule="evenodd" clip-rule="evenodd" d="M0 3.42861C0 2.00844 1.15127 0.857178 2.57143 0.857178H21.4286C22.8487 0.857178 24 2.00844 24 3.42861V6.00003C24 7.4202 22.8487 8.57146 21.4286 8.57146H2.57143C1.15127 8.57146 0 7.4202 0 6.00003V3.42861ZM22.2857 10.7143H1.71429V20.5715C1.71429 21.9916 2.86555 23.1429 4.28571 23.1429H19.7143C21.1344 23.1429 22.2857 21.9916 22.2857 20.5715V10.7143ZM9.42857 13.5C8.83683 13.5 8.35714 13.9797 8.35714 14.5715C8.35714 15.1632 8.83683 15.6429 9.42857 15.6429H14.5714C15.1632 15.6429 15.6429 15.1632 15.6429 14.5715C15.6429 13.9797 15.1632 13.5 14.5714 13.5H9.42857Z" fill="#2F88FF"/>
</g>
<defs>
<clipPath id="clip0_186_3756">
<rect width="24" height="24" fill="white"/>
</clipPath>
</defs>
</svg>
