<svg width="24" height="24" viewBox="0 0 24 24" fill="none" xmlns="http://www.w3.org/2000/svg">
<path fill-rule="evenodd" clip-rule="evenodd" d="M17.1429 11.1429C19.0364 11.1429 20.5714 12.678 20.5714 14.5715V18.8571C20.5714 19.8039 21.3389 20.5714 22.2857 20.5714C23.2325 20.5714 24 19.8039 24 18.8571V14.5715C24 10.7844 20.93 7.71437 17.1429 7.71437L6.85714 7.71437V4.2858C6.85714 3.9391 6.64834 3.62657 6.32794 3.4939C6.00771 3.36122 5.63897 3.43455 5.39383 3.6797L0.250972 8.82255C0.0903434 8.9833 -2.38419e-07 9.20132 -2.38419e-07 9.42866C-2.38419e-07 9.65597 0.0903434 9.87399 0.250972 10.0347L5.39383 15.1776C5.63897 15.4227 6.00771 15.4961 6.32794 15.3634C6.64834 15.2307 6.85714 14.9182 6.85714 14.5715V11.1429L17.1429 11.1429Z" fill=""/>
</svg>
