<svg width="26" height="28" viewBox="0 0 26 28" fill="none" xmlns="http://www.w3.org/2000/svg">
<g filter="url(#filter0_d_1222_2128)">
<path fill-rule="evenodd" clip-rule="evenodd" d="M10.8571 0C10.0682 0 9.42858 0.639594 9.42858 1.42857V2.14286C9.42858 2.93184 10.0682 3.57143 10.8571 3.57143H15.1429C15.9318 3.57143 16.5714 2.93184 16.5714 2.14286V1.42857C16.5714 0.639593 15.9318 0 15.1429 0H10.8571ZM6.92858 1.42857H7.64286V2.14286C7.64286 3.91806 9.08195 5.35714 10.8571 5.35714H15.1429C16.9181 5.35714 18.3571 3.91806 18.3571 2.14286V1.42857H19.0714C20.2549 1.42857 21.2143 2.38796 21.2143 3.57143V17.8571C21.2143 19.0406 20.2549 20 19.0714 20H6.92858C5.74511 20 4.78572 19.0406 4.78572 17.8571V3.57143C4.78572 2.38796 5.74511 1.42857 6.92858 1.42857Z" fill="#2F88FF"/>
</g>
<defs>
<filter id="filter0_d_1222_2128" x="-1" y="0" width="28" height="28" filterUnits="userSpaceOnUse" color-interpolation-filters="sRGB">
<feFlood flood-opacity="0" result="BackgroundImageFix"/>
<feColorMatrix in="SourceAlpha" type="matrix" values="0 0 0 0 0 0 0 0 0 0 0 0 0 0 0 0 0 0 127 0" result="hardAlpha"/>
<feOffset dy="4"/>
<feGaussianBlur stdDeviation="2"/>
<feComposite in2="hardAlpha" operator="out"/>
<feColorMatrix type="matrix" values="0 0 0 0 0 0 0 0 0 0 0 0 0 0 0 0 0 0 0.25 0"/>
<feBlend mode="normal" in2="BackgroundImageFix" result="effect1_dropShadow_1222_2128"/>
<feBlend mode="normal" in="SourceGraphic" in2="effect1_dropShadow_1222_2128" result="shape"/>
</filter>
</defs>
</svg>
